<svg width="512" height="512" viewBox="0 0 512 512" fill="none" xmlns="http://www.w3.org/2000/svg">
<rect width="512" height="512" rx="10" fill="url(#paint0_linear_33_2)"/>
<path d="M197.815 188V129.818H237.019V139.96H210.116V153.824H235.002V163.966H210.116V177.858H237.133V188H197.815ZM259.015 188.824C256.231 188.824 253.75 188.341 251.572 187.375C249.394 186.39 247.67 184.941 246.401 183.028C245.151 181.097 244.526 178.691 244.526 175.812C244.526 173.388 244.971 171.352 245.862 169.705C246.752 168.057 247.964 166.731 249.498 165.727C251.032 164.723 252.774 163.966 254.725 163.455C256.695 162.943 258.759 162.583 260.918 162.375C263.456 162.11 265.502 161.864 267.055 161.636C268.608 161.39 269.735 161.03 270.435 160.557C271.136 160.083 271.487 159.383 271.487 158.455V158.284C271.487 156.485 270.918 155.093 269.782 154.108C268.665 153.123 267.074 152.631 265.009 152.631C262.831 152.631 261.098 153.114 259.81 154.08C258.522 155.027 257.67 156.22 257.254 157.659L246.06 156.75C246.629 154.098 247.746 151.807 249.413 149.875C251.079 147.924 253.229 146.428 255.862 145.386C258.513 144.326 261.581 143.795 265.066 143.795C267.49 143.795 269.81 144.08 272.026 144.648C274.261 145.216 276.24 146.097 277.964 147.29C279.706 148.483 281.079 150.017 282.083 151.892C283.087 153.748 283.589 155.973 283.589 158.568V188H272.112V181.949H271.771C271.07 183.312 270.132 184.515 268.958 185.557C267.784 186.58 266.373 187.384 264.725 187.972C263.077 188.54 261.174 188.824 259.015 188.824ZM262.481 180.472C264.261 180.472 265.833 180.121 267.197 179.42C268.56 178.701 269.63 177.735 270.407 176.523C271.183 175.311 271.572 173.937 271.572 172.403V167.773C271.193 168.019 270.672 168.246 270.009 168.455C269.365 168.644 268.636 168.824 267.822 168.994C267.007 169.146 266.193 169.288 265.379 169.42C264.564 169.534 263.826 169.638 263.163 169.733C261.742 169.941 260.502 170.273 259.441 170.727C258.38 171.182 257.557 171.797 256.969 172.574C256.382 173.331 256.089 174.278 256.089 175.415C256.089 177.062 256.685 178.322 257.879 179.193C259.091 180.045 260.625 180.472 262.481 180.472ZM316.188 144.364V153.455H289.91V144.364H316.188ZM295.876 133.909H307.978V174.591C307.978 175.708 308.148 176.58 308.489 177.205C308.83 177.811 309.304 178.237 309.91 178.483C310.535 178.729 311.254 178.852 312.069 178.852C312.637 178.852 313.205 178.805 313.773 178.71C314.342 178.597 314.777 178.511 315.08 178.455L316.984 187.46C316.378 187.65 315.525 187.867 314.427 188.114C313.328 188.379 311.993 188.54 310.421 188.597C307.504 188.71 304.948 188.322 302.751 187.432C300.573 186.542 298.878 185.159 297.665 183.284C296.453 181.409 295.857 179.042 295.876 176.182V133.909ZM198.362 285V226.818H236.884V236.96H210.663V250.824H234.327V260.966H210.663V285H198.362ZM261.444 285.852C257.031 285.852 253.215 284.915 249.995 283.04C246.794 281.146 244.323 278.513 242.58 275.142C240.838 271.752 239.967 267.822 239.967 263.352C239.967 258.845 240.838 254.905 242.58 251.534C244.323 248.144 246.794 245.511 249.995 243.636C253.215 241.742 257.031 240.795 261.444 240.795C265.857 240.795 269.664 241.742 272.864 243.636C276.084 245.511 278.565 248.144 280.308 251.534C282.05 254.905 282.921 258.845 282.921 263.352C282.921 267.822 282.05 271.752 280.308 275.142C278.565 278.513 276.084 281.146 272.864 283.04C269.664 284.915 265.857 285.852 261.444 285.852ZM261.501 276.477C263.508 276.477 265.184 275.909 266.529 274.773C267.874 273.617 268.887 272.045 269.569 270.057C270.27 268.068 270.62 265.805 270.62 263.267C270.62 260.729 270.27 258.466 269.569 256.477C268.887 254.489 267.874 252.917 266.529 251.761C265.184 250.606 263.508 250.028 261.501 250.028C259.474 250.028 257.77 250.606 256.387 251.761C255.023 252.917 253.991 254.489 253.29 256.477C252.609 258.466 252.268 260.729 252.268 263.267C252.268 265.805 252.609 268.068 253.29 270.057C253.991 272.045 255.023 273.617 256.387 274.773C257.77 275.909 259.474 276.477 261.501 276.477ZM290.79 285V241.364H302.523V248.977H302.978C303.773 246.269 305.109 244.223 306.984 242.841C308.859 241.439 311.018 240.739 313.461 240.739C314.067 240.739 314.72 240.777 315.421 240.852C316.122 240.928 316.737 241.032 317.268 241.165V251.903C316.7 251.733 315.914 251.581 314.91 251.449C313.906 251.316 312.987 251.25 312.154 251.25C310.374 251.25 308.783 251.638 307.381 252.415C305.999 253.172 304.9 254.233 304.086 255.597C303.29 256.96 302.893 258.532 302.893 260.312V285H290.79ZM60.0128 333.96V323.818H107.797V333.96H89.9844V382H77.8253V333.96H60.0128ZM128.827 382.852C124.414 382.852 120.598 381.915 117.378 380.04C114.177 378.146 111.705 375.513 109.963 372.142C108.221 368.752 107.349 364.822 107.349 360.352C107.349 355.845 108.221 351.905 109.963 348.534C111.705 345.144 114.177 342.511 117.378 340.636C120.598 338.742 124.414 337.795 128.827 337.795C133.24 337.795 137.046 338.742 140.247 340.636C143.467 342.511 145.948 345.144 147.69 348.534C149.433 351.905 150.304 355.845 150.304 360.352C150.304 364.822 149.433 368.752 147.69 372.142C145.948 375.513 143.467 378.146 140.247 380.04C137.046 381.915 133.24 382.852 128.827 382.852ZM128.884 373.477C130.891 373.477 132.567 372.909 133.912 371.773C135.257 370.617 136.27 369.045 136.952 367.057C137.652 365.068 138.003 362.805 138.003 360.267C138.003 357.729 137.652 355.466 136.952 353.477C136.27 351.489 135.257 349.917 133.912 348.761C132.567 347.606 130.891 347.028 128.884 347.028C126.857 347.028 125.152 347.606 123.77 348.761C122.406 349.917 121.374 351.489 120.673 353.477C119.991 355.466 119.651 357.729 119.651 360.267C119.651 362.805 119.991 365.068 120.673 367.057C121.374 369.045 122.406 370.617 123.77 371.773C125.152 372.909 126.857 373.477 128.884 373.477ZM158.173 382V338.364H169.707V346.062H170.219C171.128 343.506 172.643 341.489 174.764 340.011C176.885 338.534 179.423 337.795 182.378 337.795C185.37 337.795 187.918 338.544 190.02 340.04C192.122 341.517 193.524 343.525 194.224 346.062H194.679C195.569 343.562 197.179 341.564 199.509 340.068C201.857 338.553 204.632 337.795 207.832 337.795C211.904 337.795 215.209 339.093 217.747 341.688C220.304 344.263 221.582 347.919 221.582 352.653V382H209.509V355.04C209.509 352.616 208.865 350.797 207.577 349.585C206.289 348.373 204.679 347.767 202.747 347.767C200.55 347.767 198.836 348.468 197.605 349.869C196.374 351.252 195.759 353.08 195.759 355.352V382H184.026V354.784C184.026 352.644 183.41 350.939 182.179 349.67C180.967 348.402 179.366 347.767 177.378 347.767C176.033 347.767 174.821 348.108 173.741 348.79C172.681 349.453 171.838 350.39 171.213 351.602C170.588 352.795 170.276 354.197 170.276 355.807V382H158.173ZM250.858 382.852C246.445 382.852 242.629 381.915 239.409 380.04C236.208 378.146 233.737 375.513 231.994 372.142C230.252 368.752 229.381 364.822 229.381 360.352C229.381 355.845 230.252 351.905 231.994 348.534C233.737 345.144 236.208 342.511 239.409 340.636C242.629 338.742 246.445 337.795 250.858 337.795C255.271 337.795 259.078 338.742 262.278 340.636C265.498 342.511 267.979 345.144 269.722 348.534C271.464 351.905 272.335 355.845 272.335 360.352C272.335 364.822 271.464 368.752 269.722 372.142C267.979 375.513 265.498 378.146 262.278 380.04C259.078 381.915 255.271 382.852 250.858 382.852ZM250.915 373.477C252.922 373.477 254.598 372.909 255.943 371.773C257.288 370.617 258.301 369.045 258.983 367.057C259.684 365.068 260.034 362.805 260.034 360.267C260.034 357.729 259.684 355.466 258.983 353.477C258.301 351.489 257.288 349.917 255.943 348.761C254.598 347.606 252.922 347.028 250.915 347.028C248.888 347.028 247.184 347.606 245.801 348.761C244.438 349.917 243.405 351.489 242.705 353.477C242.023 355.466 241.682 357.729 241.682 360.267C241.682 362.805 242.023 365.068 242.705 367.057C243.405 369.045 244.438 370.617 245.801 371.773C247.184 372.909 248.888 373.477 250.915 373.477ZM280.205 382V338.364H291.938V345.977H292.392C293.188 343.269 294.523 341.223 296.398 339.841C298.273 338.439 300.432 337.739 302.875 337.739C303.481 337.739 304.134 337.777 304.835 337.852C305.536 337.928 306.152 338.032 306.682 338.165V348.903C306.114 348.733 305.328 348.581 304.324 348.449C303.32 348.316 302.402 348.25 301.568 348.25C299.788 348.25 298.197 348.638 296.795 349.415C295.413 350.172 294.314 351.233 293.5 352.597C292.705 353.96 292.307 355.532 292.307 357.312V382H280.205ZM312.939 382V338.364H324.672V345.977H325.126C325.922 343.269 327.257 341.223 329.132 339.841C331.007 338.439 333.166 337.739 335.609 337.739C336.215 337.739 336.869 337.777 337.57 337.852C338.27 337.928 338.886 338.032 339.416 338.165V348.903C338.848 348.733 338.062 348.581 337.058 348.449C336.054 348.316 335.136 348.25 334.303 348.25C332.522 348.25 330.931 348.638 329.53 349.415C328.147 350.172 327.049 351.233 326.234 352.597C325.439 353.96 325.041 355.532 325.041 357.312V382H312.939ZM363.358 382.852C358.945 382.852 355.129 381.915 351.909 380.04C348.708 378.146 346.237 375.513 344.494 372.142C342.752 368.752 341.881 364.822 341.881 360.352C341.881 355.845 342.752 351.905 344.494 348.534C346.237 345.144 348.708 342.511 351.909 340.636C355.129 338.742 358.945 337.795 363.358 337.795C367.771 337.795 371.578 338.742 374.778 340.636C377.998 342.511 380.479 345.144 382.222 348.534C383.964 351.905 384.835 355.845 384.835 360.352C384.835 364.822 383.964 368.752 382.222 372.142C380.479 375.513 377.998 378.146 374.778 380.04C371.578 381.915 367.771 382.852 363.358 382.852ZM363.415 373.477C365.422 373.477 367.098 372.909 368.443 371.773C369.788 370.617 370.801 369.045 371.483 367.057C372.184 365.068 372.534 362.805 372.534 360.267C372.534 357.729 372.184 355.466 371.483 353.477C370.801 351.489 369.788 349.917 368.443 348.761C367.098 347.606 365.422 347.028 363.415 347.028C361.388 347.028 359.684 347.606 358.301 348.761C356.938 349.917 355.905 351.489 355.205 353.477C354.523 355.466 354.182 357.729 354.182 360.267C354.182 362.805 354.523 365.068 355.205 367.057C355.905 369.045 356.938 370.617 358.301 371.773C359.684 372.909 361.388 373.477 363.415 373.477ZM400.219 382L388.344 338.364H400.588L407.349 367.682H407.747L414.793 338.364H426.81L433.969 367.511H434.338L440.986 338.364H453.202L441.355 382H428.543L421.043 354.557H420.503L413.003 382H400.219Z" fill="white"/>
<defs>
<linearGradient id="paint0_linear_33_2" x1="0" y1="0" x2="512" y2="512" gradientUnits="userSpaceOnUse">
<stop stop-color="#D40101"/>
<stop offset="0.50588" stop-color="#FFB74C"/>
<stop offset="1" stop-color="#0059FF"/>
</linearGradient>
</defs>
</svg>
